<svg width="48" height="48" viewBox="0 0 48 48" fill="none" xmlns="http://www.w3.org/2000/svg">
<rect width="48" height="48" rx="24" fill="white"/>
<rect width="48" height="48" rx="24" fill="#F4F6FD"/>
<path d="M19.7718 14.439L20.8484 14.095C21.8573 13.7726 22.9351 14.2936 23.3671 15.3123L24.2269 17.3397C24.6015 18.2231 24.3936 19.262 23.7129 19.9082L21.8186 21.7062C21.9354 22.7816 22.297 23.8406 22.9031 24.8832C23.5092 25.9257 24.2663 26.7905 25.1742 27.4776L27.4494 26.7189C28.3118 26.4313 29.2509 26.7618 29.7799 27.539L31.0123 29.3495C31.6272 30.2529 31.5166 31.4993 30.7536 32.2653L29.9359 33.0862C29.122 33.9033 27.9594 34.1997 26.884 33.8643C24.3452 33.0723 22.0108 30.7211 19.8811 26.8107C17.7482 22.8945 16.9955 19.5719 17.6228 16.8429C17.8868 15.6946 18.7043 14.7801 19.7718 14.439Z" fill="#242424"/>
</svg>
