<svg width="49" height="48" viewBox="0 0 49 48" fill="none" xmlns="http://www.w3.org/2000/svg">
<rect x="0.667297" width="48" height="48" rx="24" fill="url(#paint0_linear_406_37263)"/>
<rect x="0.667297" width="48" height="48" rx="24" fill="url(#paint1_radial_406_37263)" fill-opacity="0.4"/>
<rect x="0.667297" width="48" height="48" rx="24" fill="#E9BDDD"/>
<path d="M14.3313 12.4526C13.7327 12.4526 13.2474 12.9379 13.2474 13.5365C13.2474 14.1351 13.7327 14.6204 14.3313 14.6204H15.3165L16.9297 18.5996C17.3324 19.5929 18.2972 20.2429 19.3691 20.2429H25.737C26.1022 20.2429 26.3245 20.6448 26.1305 20.9542L23.9632 24.4102C23.0287 25.9004 21.3933 26.8051 19.6343 26.8051H13.7391C13.1405 26.8051 12.6552 27.2904 12.6552 27.889C12.6552 28.4876 13.1405 28.9729 13.7391 28.9729H19.6343C22.1396 28.9729 24.4687 27.6843 25.7997 25.5619L27.967 22.1059C29.0664 20.3528 27.8063 18.0751 25.737 18.0751H19.3691C19.1799 18.0751 19.0097 17.9604 18.9386 17.7851L17.6556 14.6204H18.9182C19.5168 14.6204 20.0021 14.1351 20.0021 13.5365C20.0021 12.9379 19.5168 12.4526 18.9182 12.4526H14.3313Z" fill="#FFE7FD"/>
<path d="M14.3313 12.4526C13.7327 12.4526 13.2474 12.9379 13.2474 13.5365C13.2474 14.1351 13.7327 14.6204 14.3313 14.6204H15.3165L16.9297 18.5996C17.3324 19.5929 18.2972 20.2429 19.3691 20.2429H25.737C26.1022 20.2429 26.3245 20.6448 26.1305 20.9542L23.9632 24.4102C23.0287 25.9004 21.3933 26.8051 19.6343 26.8051H13.7391C13.1405 26.8051 12.6552 27.2904 12.6552 27.889C12.6552 28.4876 13.1405 28.9729 13.7391 28.9729H19.6343C22.1396 28.9729 24.4687 27.6843 25.7997 25.5619L27.967 22.1059C29.0664 20.3528 27.8063 18.0751 25.737 18.0751H19.3691C19.1799 18.0751 19.0097 17.9604 18.9386 17.7851L17.6556 14.6204H18.9182C19.5168 14.6204 20.0021 14.1351 20.0021 13.5365C20.0021 12.9379 19.5168 12.4526 18.9182 12.4526H14.3313Z" fill="#6509AD"/>
<path d="M8.16481 28.3331C8.16481 25.1726 10.7269 22.6105 13.8874 22.6105C16.1051 22.6105 18.0302 23.8719 18.9808 25.7213C19.2544 26.2537 19.9079 26.4635 20.4403 26.1898C20.9727 25.9162 21.1824 25.2627 20.9087 24.7303C19.6013 22.1867 16.9489 20.4428 13.8874 20.4428C9.52968 20.4428 5.99707 23.9754 5.99707 28.3331C5.99707 32.6908 9.52968 36.2234 13.8874 36.2234C17.1511 36.2234 19.9496 34.2421 21.1503 31.421C21.3847 30.8702 21.1283 30.2336 20.5775 29.9992C20.0267 29.7648 19.3901 30.0212 19.1557 30.572C18.2833 32.6219 16.2515 34.0557 13.8874 34.0557C10.7269 34.0557 8.16481 31.4936 8.16481 28.3331Z" fill="#FFE7FD"/>
<path d="M8.16481 28.3331C8.16481 25.1726 10.7269 22.6105 13.8874 22.6105C16.1051 22.6105 18.0302 23.8719 18.9808 25.7213C19.2544 26.2537 19.9079 26.4635 20.4403 26.1898C20.9727 25.9162 21.1824 25.2627 20.9087 24.7303C19.6013 22.1867 16.9489 20.4428 13.8874 20.4428C9.52968 20.4428 5.99707 23.9754 5.99707 28.3331C5.99707 32.6908 9.52968 36.2234 13.8874 36.2234C17.1511 36.2234 19.9496 34.2421 21.1503 31.421C21.3847 30.8702 21.1283 30.2336 20.5775 29.9992C20.0267 29.7648 19.3901 30.0212 19.1557 30.572C18.2833 32.6219 16.2515 34.0557 13.8874 34.0557C10.7269 34.0557 8.16481 31.4936 8.16481 28.3331Z" fill="#6509AD"/>
<path d="M32.5399 16.0852C33.4232 15.9478 34.0484 16.9262 33.5525 17.6701C33.2204 18.1681 33.355 18.8411 33.8531 19.1731C34.3512 19.5052 35.0241 19.3706 35.3562 18.8725C36.8985 16.559 34.9542 13.5158 32.2067 13.9432L30.3636 14.2299C29.6578 14.3397 29.2242 15.0624 29.4595 15.7367L33.8748 28.394C34.072 28.9592 34.69 29.2576 35.2552 29.0604C35.8204 28.8633 36.1188 28.2453 35.9216 27.68L31.911 16.183L32.5399 16.0852Z" fill="#FFE7FD"/>
<path d="M32.5399 16.0852C33.4232 15.9478 34.0484 16.9262 33.5525 17.6701C33.2204 18.1681 33.355 18.8411 33.8531 19.1731C34.3512 19.5052 35.0241 19.3706 35.3562 18.8725C36.8985 16.559 34.9542 13.5158 32.2067 13.9432L30.3636 14.2299C29.6578 14.3397 29.2242 15.0624 29.4595 15.7367L33.8748 28.394C34.072 28.9592 34.69 29.2576 35.2552 29.0604C35.8204 28.8633 36.1188 28.2453 35.9216 27.68L31.911 16.183L32.5399 16.0852Z" fill="#6509AD"/>
<path d="M29.6994 29.864C30.6868 32.8663 33.9211 34.4997 36.9234 33.5122C39.9257 32.5248 41.559 29.2905 40.5716 26.2882C39.833 24.0424 37.8361 22.5604 35.6163 22.372C35.0199 22.3214 34.5774 21.7969 34.628 21.2004C34.6786 20.6039 35.2031 20.1614 35.7996 20.212C38.8546 20.4713 41.6111 22.5106 42.6308 25.6109C43.9923 29.7505 41.7402 34.21 37.6007 35.5714C33.4611 36.9329 29.0017 34.6809 27.6402 30.5413C26.6837 27.633 27.5116 24.5686 29.5194 22.5319C29.9396 22.1056 30.6259 22.1007 31.0521 22.5209C31.4784 22.9412 31.4833 23.6274 31.0631 24.0537C29.6032 25.5346 29.0065 27.7573 29.6994 29.864Z" fill="#FFE7FD"/>
<path d="M29.6994 29.864C30.6868 32.8663 33.9211 34.4997 36.9234 33.5122C39.9257 32.5248 41.559 29.2905 40.5716 26.2882C39.833 24.0424 37.8361 22.5604 35.6163 22.372C35.0199 22.3214 34.5774 21.7969 34.628 21.2004C34.6786 20.6039 35.2031 20.1614 35.7996 20.212C38.8546 20.4713 41.6111 22.5106 42.6308 25.6109C43.9923 29.7505 41.7402 34.21 37.6007 35.5714C33.4611 36.9329 29.0017 34.6809 27.6402 30.5413C26.6837 27.633 27.5116 24.5686 29.5194 22.5319C29.9396 22.1056 30.6259 22.1007 31.0521 22.5209C31.4784 22.9412 31.4833 23.6274 31.0631 24.0537C29.6032 25.5346 29.0065 27.7573 29.6994 29.864Z" fill="#6509AD"/>
<defs>
<linearGradient id="paint0_linear_406_37263" x1="14.6028" y1="9.29032" x2="31.635" y2="44.5161" gradientUnits="userSpaceOnUse">
<stop stop-color="#FF61DC"/>
<stop offset="1" stop-color="#F04953"/>
</linearGradient>
<radialGradient id="paint1_radial_406_37263" cx="0" cy="0" r="1" gradientUnits="userSpaceOnUse" gradientTransform="translate(47.506 27.0968) rotate(137.534) scale(30.9605)">
<stop offset="0.34" stop-color="#FFF72B"/>
<stop offset="1" stop-color="#FFF72B" stop-opacity="0"/>
</radialGradient>
</defs>
</svg>
